<svg width="108" height="108" viewBox="0 0 108 108" fill="none" xmlns="http://www.w3.org/2000/svg">
<rect width="108" height="108" rx="54" fill="url(#paint0_linear_1313_727)"/>
<rect x="11" y="11" width="86" height="86" rx="43" fill="white"/>
<path d="M63.078 32.3335H44.9213C37.0347 32.3335 32.333 37.0352 32.333 44.9218V63.0568C32.333 70.9652 37.0347 75.6668 44.9213 75.6668H63.0563C70.943 75.6668 75.6447 70.9652 75.6447 63.0785V44.9218C75.6663 37.0352 70.9647 32.3335 63.078 32.3335ZM52.9813 57.3152L44.9213 65.3752H49.6663C50.5547 65.3752 51.2913 66.1118 51.2913 67.0002C51.2913 67.8885 50.5547 68.6252 49.6663 68.6252H40.9997C40.783 68.6252 40.5663 68.5818 40.3713 68.4952C39.9813 68.3218 39.6563 68.0185 39.483 67.6068C39.418 67.4118 39.3747 67.2168 39.3747 67.0002V58.3335C39.3747 57.4452 40.1113 56.7085 40.9997 56.7085C41.888 56.7085 42.6247 57.4452 42.6247 58.3335V63.0785L50.6847 55.0185C51.313 54.3902 52.353 54.3902 52.9813 55.0185C53.6097 55.6468 53.6097 56.6868 52.9813 57.3152ZM68.6247 49.6668C68.6247 50.5552 67.888 51.2918 66.9997 51.2918C66.1113 51.2918 65.3747 50.5552 65.3747 49.6668V44.9218L57.3147 52.9818C56.9897 53.3068 56.578 53.4585 56.1663 53.4585C55.7547 53.4585 55.343 53.3068 55.018 52.9818C54.3897 52.3535 54.3897 51.3135 55.018 50.6852L63.078 42.6252H58.333C57.4447 42.6252 56.708 41.8885 56.708 41.0002C56.708 40.1118 57.4447 39.3752 58.333 39.3752H66.9997C67.2163 39.3752 67.4113 39.4185 67.628 39.5052C68.018 39.6785 68.343 39.9818 68.5163 40.3935C68.5813 40.5885 68.6247 40.7835 68.6247 41.0002V49.6668Z" fill="url(#paint1_linear_1313_727)"/>
<rect x="11" y="11" width="86" height="86" rx="43" stroke="url(#paint2_linear_1313_727)" stroke-width="2"/>
<defs>
<linearGradient id="paint0_linear_1313_727" x1="6.3245e-07" y1="53.5046" x2="108" y2="53.5046" gradientUnits="userSpaceOnUse">
<stop stop-color="white"/>
<stop offset="1" stop-color="white" stop-opacity="0"/>
</linearGradient>
<linearGradient id="paint1_linear_1313_727" x1="75.6447" y1="75.6668" x2="26.3711" y2="67.2545" gradientUnits="userSpaceOnUse">
<stop stop-color="#00796D"/>
<stop offset="1" stop-color="#38C682"/>
</linearGradient>
<linearGradient id="paint2_linear_1313_727" x1="98" y1="98" x2="-2.11054" y2="80.9" gradientUnits="userSpaceOnUse">
<stop stop-color="#00796D"/>
<stop offset="1" stop-color="#38C682"/>
</linearGradient>
</defs>
</svg>
