<svg width="108" height="108" viewBox="0 0 108 108" fill="none" xmlns="http://www.w3.org/2000/svg">
<rect width="108" height="108" rx="54" fill="url(#paint0_linear_1313_741)"/>
<rect x="11" y="11" width="86" height="86" rx="43" fill="white"/>
<path d="M40.4369 62.6668C40.6753 61.6052 40.2419 60.0885 39.4836 59.3302L34.2186 54.0652C32.5719 52.4185 31.9219 50.6635 32.3986 49.1468C32.8969 47.6302 34.4353 46.5902 36.7319 46.2002L43.4919 45.0735C44.4669 44.9002 45.6586 44.0335 46.1136 43.1452L49.8403 35.6702C50.9236 33.5252 52.3969 32.3335 54.0003 32.3335C55.6036 32.3335 57.0769 33.5252 58.1603 35.6702L61.8869 43.1452C62.1686 43.7085 62.7536 44.2502 63.3819 44.6185L40.0469 67.9535C39.7436 68.2568 39.2236 67.9752 39.3103 67.5418L40.4369 62.6668Z" fill="url(#paint1_linear_1313_741)"/>
<path d="M68.5169 59.3302C67.7369 60.1102 67.3036 61.6052 67.5636 62.6668L69.0586 69.1885C69.6869 71.8968 69.2969 73.9335 67.9536 74.9085C67.4119 75.2985 66.7619 75.4935 66.0036 75.4935C64.8986 75.4935 63.5986 75.0818 62.1686 74.2368L55.8203 70.4668C54.8236 69.8818 53.1769 69.8818 52.1803 70.4668L45.8319 74.2368C43.4269 75.6452 41.3686 75.8835 40.0469 74.9085C39.5486 74.5402 39.1803 74.0418 38.9419 73.3918L65.2886 47.0452C66.2853 46.0485 67.6936 45.5935 69.0586 45.8318L71.2469 46.2002C73.5436 46.5902 75.0819 47.6302 75.5803 49.1468C76.0569 50.6635 75.4069 52.4185 73.7603 54.0652L68.5169 59.3302Z" fill="url(#paint2_linear_1313_741)"/>
<rect x="11" y="11" width="86" height="86" rx="43" stroke="url(#paint3_linear_1313_741)" stroke-width="2"/>
<defs>
<linearGradient id="paint0_linear_1313_741" x1="6.3245e-07" y1="53.5046" x2="108" y2="53.5046" gradientUnits="userSpaceOnUse">
<stop stop-color="white"/>
<stop offset="1" stop-color="white" stop-opacity="0"/>
</linearGradient>
<linearGradient id="paint1_linear_1313_741" x1="75.7328" y1="75.4989" x2="26.2824" y2="66.9894" gradientUnits="userSpaceOnUse">
<stop stop-color="#00796D"/>
<stop offset="1" stop-color="#38C682"/>
</linearGradient>
<linearGradient id="paint2_linear_1313_741" x1="75.7328" y1="75.4989" x2="26.2824" y2="66.9894" gradientUnits="userSpaceOnUse">
<stop stop-color="#00796D"/>
<stop offset="1" stop-color="#38C682"/>
</linearGradient>
<linearGradient id="paint3_linear_1313_741" x1="98" y1="98" x2="-2.11054" y2="80.9" gradientUnits="userSpaceOnUse">
<stop stop-color="#00796D"/>
<stop offset="1" stop-color="#38C682"/>
</linearGradient>
</defs>
</svg>
