<svg width="26" height="27" viewBox="0 0 26 27" fill="none" xmlns="http://www.w3.org/2000/svg">
<path d="M11.3335 2.33341L11.3335 20.9501L3.20013 12.8167C2.55013 12.1667 1.48347 12.1667 0.833467 12.8167C0.183468 13.4667 0.183468 14.5167 0.833467 15.1667L11.8168 26.1501C12.4668 26.8001 13.5168 26.8001 14.1668 26.1501L25.1668 15.1834C25.8168 14.5334 25.8168 13.4834 25.1668 12.8334C24.5168 12.1834 23.4668 12.1834 22.8168 12.8334L14.6668 20.9501L14.6668 2.33341C14.6668 1.41675 13.9168 0.666748 13.0001 0.666748C12.0835 0.666748 11.3335 1.41675 11.3335 2.33341Z" fill="url(#paint0_linear_1326_331)"/>
<defs>
<linearGradient id="paint0_linear_1326_331" x1="0.345967" y1="26.6376" x2="5.51691" y2="-2.86299" gradientUnits="userSpaceOnUse">
<stop stop-color="#00796D"/>
<stop offset="1" stop-color="#38C682"/>
</linearGradient>
</defs>
</svg>
